<svg id="Layer_1" data-name="Layer 1" xmlns="http://www.w3.org/2000/svg" viewBox="0 0 127.56 117.2"><defs><style>.cls-1{fill:#fe8c00;}.cls-2{fill:#020202;}.cls-3{fill:#090909;}.cls-4{fill:#0f0f0f;}.cls-5{fill:#050505;}.cls-6{fill:#0a0a0a;}.cls-7{fill:#fdfdfd;}.cls-8{fill:#070707;}.cls-9{fill:#131313;}.cls-10{fill:#d6d6d6;}.cls-11{fill:#101010;}.cls-12{fill:#e10000;}.cls-13{fill:#fe0000;}.cls-14{fill:#700000;}.cls-15{fill:#c50000;}</style></defs><path d="M304.82,414c.27,2.71.5,5.12.75,7.53s.58,5,.79,7.5a3.14,3.14,0,0,1-.38,1.81c-2.08,3.3-4.22,6.56-6.39,9.81a25.41,25.41,0,0,1-1.85,2.32c-.48.55-1,.58-1.67-.09.45-.49.91-1,1.34-1.45a37.82,37.82,0,0,0,6.83-10.62,7.61,7.61,0,0,0,.52-3.1,42.44,42.44,0,0,0-3.67-15.51,7.26,7.26,0,0,0-4.71-4.1c-6.44-1.86-13-3.41-19.42-5.17s-13-3.42-19.43-5.57A31.28,31.28,0,0,1,245.6,390a11.22,11.22,0,0,1-3.1-5.45c-.73-3,.37-5.28,3.32-6.23a28.15,28.15,0,0,1,11.11-1.1c1.95.17,3.91.17,5.86.28,6,.35,12,.7,18,1.1a2.61,2.61,0,0,0,2.7-1.37,17.47,17.47,0,0,1,12.68-8.11,33,33,0,0,1,9.05.37,2.36,2.36,0,0,0,1.19-.06c-.28-.27-.54-.57-.84-.82-6.42-5.52-10.71-12.3-12.21-20.71a14.2,14.2,0,0,1-.17-3.45c.18-2.83,1.74-4.09,4.43-3.13a34.45,34.45,0,0,1,7.67,3.79,103.29,103.29,0,0,1,30.16,32.29c.72,1.19,1.17,2.54,1.84,3.76a2.83,2.83,0,0,0,1.24,1.25,23.4,23.4,0,0,1,6.85,3.86,6.45,6.45,0,0,1,2.72,5.39,6.45,6.45,0,0,1,5.35,2.11,9.38,9.38,0,0,1,2.33,5.52,4.37,4.37,0,0,0,.8-.37,4.7,4.7,0,0,1,5.09-.25c5.38,2.59,8.9,9.64,7.78,15.94a25.86,25.86,0,0,1-1.93,5.74,5.66,5.66,0,0,1-1.86,1.95,1.46,1.46,0,0,0-.42,2.31c1.07,1.79,2.08,3.62,3.12,5.43l-.4.27-3.34-4.07c-1.71,3.11-1.57,6.3-1.31,9.82-1.46-1.88-1.77-3.85-2.19-6a23.91,23.91,0,0,1-15.51,5.77,22,22,0,0,0,5.17,9.4c-.79.71-1.34.41-1.77-.28-1.72-2.82-3.47-5.63-5.11-8.49a3.52,3.52,0,0,0-1.68-1.51,24,24,0,0,1-5-2.94,7.61,7.61,0,0,1-2.53-7.8c.05-.27.1-.54.14-.82,0-.06-.06-.13-.09-.18-1.27.27-2.56.48-3.8.84-.27.08-.54.65-.57,1A56.21,56.21,0,0,0,332,443.72a1.64,1.64,0,0,1-1,2.23c-3.25,1.79-6.45,3.67-9.64,5.56a3.14,3.14,0,0,0-1.14,1.28c-.69,1.39-1.26,2.85-1.91,4.26a3.19,3.19,0,0,1-.77,1,.82.82,0,0,1-.76.07.9.9,0,0,1-.23-.72,3.36,3.36,0,0,1,.26-.91c.68-2,1.43-4,2-6a1.74,1.74,0,0,1,1.57-1.47,23,23,0,0,0,8.32-3.22,1,1,0,0,0,.49-1.63,31.59,31.59,0,0,1-2.86-19.55c.12-.75.1-1.15-.78-1.36a65.36,65.36,0,0,1-18.81-8.13C306.24,414.81,305.66,414.5,304.82,414Z" transform="translate(-242.12 -340.99)"/><rect class="cls-1" x="314.66" y="357.78" width="9.79" height="19.52" transform="translate(-409.6 26.42) rotate(-48.98)"/><path class="cls-2" d="M329.72,445.28c.17.29.45.23.72.24-1.87,1.32-3.9,2.37-5.86,3.54a9.35,9.35,0,0,0-3,2c-1.49.85-2,2.35-2.63,3.8a21,21,0,0,1-1.15,2.27c-.12.21-.36.6-.76.28s-.5-.51-.26-.8,0-.81.36-1.08c.57-.22.67-.77.81-1.24.45-1.56.84-3.13,1.26-4.7.34-.09.68-.19,1-.27A23.19,23.19,0,0,0,329.72,445.28Z" transform="translate(-242.12 -340.99)"/><path class="cls-3" d="M321.59,451.08a9.35,9.35,0,0,1,3-2c2-1.17,4-2.22,5.86-3.54,1.17-.16,1.35-.87,1.09-1.89a62.2,62.2,0,0,1-1.81-17.19,3.7,3.7,0,0,1,.55-2.22,59.77,59.77,0,0,0,1.72,20c.13.5.21.9-.34,1.21C328.29,447.29,324.94,449.19,321.59,451.08Z" transform="translate(-242.12 -340.99)"/><path class="cls-3" d="M305.79,425.64a9,9,0,0,1-.69-3.56c-.23-2.4-.41-4.8-.76-7.19a.77.77,0,0,1,.28-.86,1.07,1.07,0,0,1,1.23.08,44.74,44.74,0,0,0,5.57,3.22c1.2.61,2.38,1.24,3.59,1.83.26.13.49.24.55.55a61.65,61.65,0,0,1-8.58-4.44c-.41-.25-.81-.51-1.23-.75-.26-.15-.52-.5-.84-.32s-.14.65-.11,1c.3,3.05.63,6.11.94,9.16C305.78,424.76,305.77,425.2,305.79,425.64Z" transform="translate(-242.12 -340.99)"/><path class="cls-3" d="M329.72,445.28a23.19,23.19,0,0,1-9.47,4.06c-.35.08-.69.18-1,.27a2.38,2.38,0,0,0-.05-.26,6.48,6.48,0,0,1,2.36-.64A28.11,28.11,0,0,0,328.2,446c1.08-.59,1.48-1.2.67-2.27a1.67,1.67,0,0,1-.18-.56A2.68,2.68,0,0,1,329.72,445.28Z" transform="translate(-242.12 -340.99)"/><path class="cls-4" d="M271.65,401.47a11.27,11.27,0,0,1,3.35.67c2.73.63,5.45,1.3,8.18,1.95a1,1,0,0,1,.76.51c-3.19-.78-6.38-1.55-9.57-2.35A12.26,12.26,0,0,1,271.65,401.47Z" transform="translate(-242.12 -340.99)"/><path class="cls-5" d="M300.23,438a.55.55,0,0,0,.57.56l-2.4,3.12c-.42-.1-.48-.58-.83-.77a10.69,10.69,0,0,0,1.66-2A3.26,3.26,0,0,1,300.23,438Z" transform="translate(-242.12 -340.99)"/><path class="cls-6" d="M347.34,442.69c1,.07.9,1.1,1.47,1.55.29.22.41.65,1,.77-.66-1.42-2-2.27-2.14-3.82.84,1.09,1.48,2.33,2.41,3.36.19.21.87.46.27.88a.84.84,0,0,1-1.25-.23Z" transform="translate(-242.12 -340.99)"/><path class="cls-3" d="M303.56,419.66a5.72,5.72,0,0,1,.84,2.76,45.43,45.43,0,0,1,.64,6.17c0,.31.07.64-.23.88A80.69,80.69,0,0,0,303.56,419.66Z" transform="translate(-242.12 -340.99)"/><path class="cls-7" d="M346.22,437.94a.84.84,0,0,1-.15-.18c-.84-1.9-.82-1.95,1.21-2.07a29.27,29.27,0,0,0,6.86-1.48c-1.2,1-2.75,1.07-4.17,1.43a8.19,8.19,0,0,1-3,.3c-.9-.12-1.29.15-.85,1.07A1.66,1.66,0,0,1,346.22,437.94Z" transform="translate(-242.12 -340.99)"/><path class="cls-8" d="M297.57,441c.35.19.41.67.83.77a3.89,3.89,0,0,1-.91,1.19.79.79,0,0,1-1.15.06c-.48-.37,0-.74.17-1A6.48,6.48,0,0,1,297.57,441Z" transform="translate(-242.12 -340.99)"/><path class="cls-9" d="M319.17,449.35a2.38,2.38,0,0,1,.05.26c-.42,1.57-.81,3.14-1.26,4.7-.14.47-.24,1-.81,1.24C317.83,453.48,318.5,451.42,319.17,449.35Z" transform="translate(-242.12 -340.99)"/><path class="cls-10" d="M362.78,435.7c.61-.19.25-.66.25-1a16,16,0,0,1,.2-4.58c.16,2.09-.19,4.19.33,6.37C363,436.39,362.78,436.14,362.78,435.7Z" transform="translate(-242.12 -340.99)"/><path class="cls-11" d="M247.46,391.64a13.32,13.32,0,0,1,4.36,2.94A20.11,20.11,0,0,1,247.46,391.64Z" transform="translate(-242.12 -340.99)"/><path class="cls-1" d="M287.6,403.13c-.29.42-.47.48-.75.4-7.8-2.18-15.73-3.87-23.47-6.25-4.73-1.46-9.46-2.95-13.52-5.93a14.68,14.68,0,0,1-5.61-7c-.76-2.17-.13-3.55,2-4.39,2.51-1,5.17-.94,7.79-1,5.35-.14,10.68.44,16,.74,5.14.29,10.28.5,15.4.92,6.77.55,13.38,1.82,19.36,5.25,4.6,2.64,7.92,6.3,8.72,11.78a5.51,5.51,0,0,1-.06,2.79c-1.19-2.74-2.2-5.56-4.53-7.61a25.61,25.61,0,0,1,2.82,9.51,3.25,3.25,0,0,1-1.05-1.4,56.19,56.19,0,0,0-4.11-6c-.18-.24-.34-.72-.68-.54s-.07.64.09.91a36.76,36.76,0,0,1,3.22,6.94c.06.18.09.37.22.94-1.12-1.23-2-2.19-2.88-3.16a86.45,86.45,0,0,0-9.81-9.13c-.12-.1-.25-.19-.38-.28s-.42-.35-.63-.1.08.43.23.58c1.11,1.15,2.26,2.26,3.34,3.44A57.27,57.27,0,0,1,305.1,402c.18.29.49.55.32,1a84.72,84.72,0,0,0-20.34-13.76c5.85,4.11,11.66,8.24,16.72,13.46-.6.3-.83,0-1.09-.16A198.05,198.05,0,0,0,273.5,389.6a3.62,3.62,0,0,0-2.38-.31c1.94,1,3.73,1.94,5.52,2.85,6.78,3.48,13.48,7.11,20.16,10.78.21.12.4.26.61.37s.58.3.41.61-.47,0-.7-.09q-12.75-4.29-25.79-7.69c-1.89-.49-3.79-1-5.68-1.47a4.05,4.05,0,0,0-2,0C271.58,397.53,279.65,400.11,287.6,403.13Z" transform="translate(-242.12 -340.99)"/><path class="cls-1" d="M321.43,367.7l-5.12-3.44c-.3-.19-.69-.61-1-.2s.3.59.55.79c1.8,1.45,3.62,2.88,5.42,4.32.26.2.5.43.75.65s.36.48.12.74-.44,0-.64-.12l-4-2.25c-.35-.2-.71-.45-1.16-.15,0,.53.51.59.81.81a52.38,52.38,0,0,1,6,4.66c.22.22.68.41.43.77s-.56,0-.85-.13c-1-.51-2-1-3-1.48a1.67,1.67,0,0,0-1.59-.18c1.78,1.35,3.88,2.11,5.5,3.63a.78.78,0,0,1-1,.12c-6.05-2.65-12.15-5.24-17.11-9.76-6.13-5.59-10.28-12.3-11.27-20.7-.38-3.25.59-4,3.62-2.85a40.52,40.52,0,0,1,9.68,5.91,53.84,53.84,0,0,1,7.37,6.36,15.53,15.53,0,0,0,1.7,2.32c-.73-.24-1.13-.92-1.76-1.3-.19-.12-.39-.39-.62-.12s.05.46.2.62c1,1,2,1.91,3,2.92,2,2.08,3.94,4.2,5.9,6.32a3.37,3.37,0,0,1,.5.69c.1.19.33.39,0,.64s-.41-.08-.56-.21l-6.77-5.77a2.24,2.24,0,0,0-.38-.31c-.22-.13-.45-.51-.73-.2s.1.51.28.69c1.26,1.18,2.54,2.34,3.8,3.52a7.16,7.16,0,0,1,.57.65,6.85,6.85,0,0,0,1.36,1.53C322,367.54,321.83,367.66,321.43,367.7Z" transform="translate(-242.12 -340.99)"/><path class="cls-12" d="M332.9,384.39a17.18,17.18,0,0,1,11.38,5.14,1.58,1.58,0,0,1,0,2.45,8.51,8.51,0,0,1-1.4,1.29c-4.14,2.53-7.41,6-10.63,9.56a28,28,0,0,1-5.94,5.35c-1.49.91-2.18.8-3.09-.65a22.34,22.34,0,0,1-3.19-9.19c-.31-2.46.94-4.65,2.2-6.7,2.07-3.39,4.71-6.14,8.81-7a5.41,5.41,0,0,1,.58-.12C332,384.44,332.46,384.42,332.9,384.39Z" transform="translate(-242.12 -340.99)"/><path class="cls-13" d="M346.87,432c-2.95-.2-5.21-.87-7.07-2.55a4.29,4.29,0,0,1-1.36-5.17,11.64,11.64,0,0,1,1-2,64.59,64.59,0,0,1,7.56-10A14,14,0,0,1,349,410.6c2.29-1.59,4-1.48,6,.47a23.57,23.57,0,0,1,5.6,8.55,5.8,5.8,0,0,1-1.13,6.46A18.15,18.15,0,0,1,346.87,432Z" transform="translate(-242.12 -340.99)"/><path class="cls-14" d="M284.1,376.57l1.65-1.66a1.12,1.12,0,0,0,.85-.38,16.69,16.69,0,0,1,8.6-3.86c.91-.12,1.92.15,2.77-.44a26.62,26.62,0,0,1,6.36.57c2.86.59,5.81,1,8.19,2.95,1.19,1,1.2,1.35,0,2.23a10.93,10.93,0,0,0-4.52,8.17c-.1,1-.44,1.06-1.18.73-1-.42-1.79-1.07-2.8-1.42-2.3-.81-4.52-1.82-6.87-2.48a59.87,59.87,0,0,0-11.21-1.92c-.82-.06-1.9.05-2.4-.34C282.52,377.94,284.26,377.42,284.1,376.57Z" transform="translate(-242.12 -340.99)"/><path class="cls-15" d="M328.74,415.58a6.74,6.74,0,0,1,1.27-3.83,55.41,55.41,0,0,1,14.33-15.26,10.78,10.78,0,0,1,1.89-1,4.27,4.27,0,0,1,6.15,3.43,2.67,2.67,0,0,1-.86,2.39c-5,4.88-9.64,10.11-15.54,14a14.75,14.75,0,0,1-4.5,2.17C329.71,417.84,328.71,417,328.74,415.58Z" transform="translate(-242.12 -340.99)"/><path class="cls-15" d="M317.09,376.28a19.17,19.17,0,0,1,9.17,3.05,5.87,5.87,0,0,1,1.1,1c.91,1.05.82,1.72-.35,2.4-4.63,2.7-7.49,6.81-9.37,11.71-.26.7-.33,1.51-1,2s-1.17.73-1.43-.39a16.7,16.7,0,0,0-5.64-9.13,1.43,1.43,0,0,1-.51-1,9.73,9.73,0,0,1,1.8-7.22C312.44,376.7,314.73,376.42,317.09,376.28Z" transform="translate(-242.12 -340.99)"/><path class="cls-13" d="M364.38,418.57a33.41,33.41,0,0,0-3.6-6.63,19.58,19.58,0,0,0-3-3.53,2.52,2.52,0,0,1-.84-2.44,10.46,10.46,0,0,1,.89-3.45c.62-1.2,1.16-1.4,2.42-.78a10.28,10.28,0,0,1,4,3.88C366.49,409.13,366.63,415.24,364.38,418.57Z" transform="translate(-242.12 -340.99)"/><path class="cls-1" d="M318.12,361.94c-2.52-3.93-5.89-7.18-7.78-11.61,6.68,5.27,11.87,12,17,18.88C323,368.27,320.42,365.3,318.12,361.94Z" transform="translate(-242.12 -340.99)"/><path class="cls-1" d="M321,367.42c.39,0,.5-.15.2-.49a6.25,6.25,0,0,1-1.33-1.48,21.2,21.2,0,0,1,3.34,3.29A4.23,4.23,0,0,1,321,367.42Z" transform="translate(-242.12 -340.99)"/><path d="M305.79,425.64a10.09,10.09,0,0,0,.23,2.68c.43,1.87-.71,3.3-1.54,4.74-1.09,1.92-2.44,3.7-3.68,5.54a.55.55,0,0,1-.57-.56c1.4-2.49,3.11-4.82,4-7.57a6.13,6.13,0,0,1,.55-1c.3-.24.24-.57.23-.88a45.43,45.43,0,0,0-.64-6.17,5.72,5.72,0,0,0-.84-2.76,64.63,64.63,0,0,0-2.62-7.54,7.59,7.59,0,0,0-4.71-4.09c-3.86-1.24-7.82-2.16-11.74-3.22a5.2,5.2,0,0,1-.55-.21,1,1,0,0,0-.76-.51c-2.73-.65-5.45-1.32-8.18-1.95a11.27,11.27,0,0,0-3.35-.67c-5.47-1.33-11-2.58-16.14-4.91-1.27-.57-2.46-1.31-3.69-2a13.32,13.32,0,0,0-4.36-2.94,12.1,12.1,0,0,1-5.1-7.1c-.77-3,.3-5.3,3.24-6.26a27.82,27.82,0,0,1,11.19-1.12c2,.18,4,.17,6,.28q8.92.53,17.86,1.08a2.55,2.55,0,0,0,2.71-1.31,16.75,16.75,0,0,1,9.94-7.54,7.12,7.12,0,0,0,.76-.31,28.2,28.2,0,0,1,10.56,0,3.84,3.84,0,0,0,1.74.16,1.9,1.9,0,0,0-1-1l0,0-3.89-3.77A33.43,33.43,0,0,1,293,345.86a8.54,8.54,0,0,1,.1-2.26c.37-2.15,1.93-3,4.34-2.42a23.58,23.58,0,0,1,7.68,3.8,104.53,104.53,0,0,1,30.2,32.39,26.31,26.31,0,0,1,1.81,3.88,1.81,1.81,0,0,0,1.25,1.14,20.92,20.92,0,0,1,6.85,3.82c1.51,1.27,2.7,2.72,2.7,4.84,0,.4.16.53.55.59,4.34.71,6.21,2.53,7,6.83l.16.74a1.38,1.38,0,0,0,.47-.14c1.87-1.51,3.82-1.29,5.8-.26,5.06,2.63,8.36,9.65,7.41,15.73a16,16,0,0,1-1.93,5.75,5.43,5.43,0,0,1-1.88,2,1.62,1.62,0,0,0-.48,2.51,24.58,24.58,0,0,1,1.53,2.5c.09.17.5.63,0,.91s-.53-.17-.79-.38a4.33,4.33,0,0,1-.79-1c-.57-.72-.91-.43-1.16.14a13.37,13.37,0,0,0-.66,3.21,16,16,0,0,0-.2,4.58c0,.33.36.8-.25,1a14.42,14.42,0,0,1-1.62-4.95c-.06-.52-.27-.79-.75-.36a27.91,27.91,0,0,1-6.27,3.82,29.27,29.27,0,0,1-6.86,1.48c-2,.12-2,.17-1.21,2.07a.84.84,0,0,0,.15.18c-.08,1.34.91,2.2,1.47,3.25.1,1.55,1.48,2.4,2.14,3.82-.61-.12-.73-.55-1-.77-.57-.45-.52-1.48-1.47-1.55a40.68,40.68,0,0,1-3.91-7c-.24-.54-.7-.61-1.15-.74a13.16,13.16,0,0,1-4.7-2.53,8.17,8.17,0,0,1-3-8.53c.06-.26.27-.56.06-.79s-.61,0-.85.14c-1.11.6-2.44.33-3.53.94a3.7,3.7,0,0,0-.55,2.22,62.2,62.2,0,0,0,1.81,17.19c.26,1,.08,1.73-1.09,1.89-.27,0-.55.05-.72-.24a2.68,2.68,0,0,0-1-2.13A29.12,29.12,0,0,1,325.85,432a30.38,30.38,0,0,1,.45-7.73c.15-.8-.23-.93-.86-1.08a46.23,46.23,0,0,1-9.88-3.48c-.06-.31-.29-.42-.55-.55-1.21-.59-2.39-1.22-3.59-1.83a44.74,44.74,0,0,1-5.57-3.22,1.07,1.07,0,0,0-1.23-.08.77.77,0,0,0-.28.86c.35,2.39.53,4.79.76,7.19A9,9,0,0,0,305.79,425.64Zm-7.46-54.87c-.74.08-1.49.12-2.23.23a13.41,13.41,0,0,0-8.33,4.05l-1.43,1.44a2.82,2.82,0,0,0-1,1c-.16.3-.59.53-.35.94s.58.16.88.2c2.12.28,4.25.5,6.36.83a38.75,38.75,0,0,1,13.89,4.77c.81.48,1,.31,1.09-.63.26-3.05,1.36-5.71,4-7.49,1.07-.71,1.11-1,.32-2a3.32,3.32,0,0,0-1.23-.93A25.29,25.29,0,0,0,298.33,370.77Zm18.2-13.19a3.2,3.2,0,0,0,2,1.41,19.69,19.69,0,0,0-3.59-3.65,52.2,52.2,0,0,0-7.13-6.15,39.56,39.56,0,0,0-9.36-5.72c-2.93-1.13-3.87-.39-3.5,2.75,1,8.13,5,14.62,10.9,20,4.8,4.37,10.69,6.87,16.54,9.43a.75.75,0,0,0,1-.11c-1.56-1.47-3.6-2.21-5.31-3.51a1.58,1.58,0,0,1,1.53.17c.95.48,1.92.94,2.86,1.43.28.15.6.45.83.13s-.21-.54-.42-.74a51.38,51.38,0,0,0-5.84-4.52c-.28-.2-.77-.26-.77-.77.43-.3.77-.05,1.12.14l3.85,2.17c.2.12.4.36.62.12s.12-.51-.11-.72-.48-.43-.73-.63c-1.74-1.39-3.5-2.76-5.24-4.17-.24-.19-.8-.36-.53-.76s.64,0,.92.19q2.49,1.65,5,3.32a4.23,4.23,0,0,0,2.21,1.32,21.2,21.2,0,0,0-3.34-3.29,8.14,8.14,0,0,0-.54-.63c-1.22-1.14-2.46-2.26-3.68-3.4-.18-.17-.55-.36-.27-.66s.49.06.71.18a2.17,2.17,0,0,1,.37.31l6.54,5.58c.14.12.21.48.54.2s.06-.44,0-.62a3.2,3.2,0,0,0-.49-.67c-1.9-2-3.78-4.1-5.71-6.11-.93-1-1.95-1.88-2.91-2.82-.15-.15-.42-.34-.2-.6s.41,0,.6.12C315.44,356.7,315.83,357.35,316.53,357.58ZM287.6,403.13c-8-3-16-5.6-24-8.53a4.05,4.05,0,0,1,2,0c1.89.51,3.79,1,5.68,1.47q13,3.39,25.79,7.69c.23.08.49.47.7.09s-.15-.47-.41-.61-.4-.25-.61-.37c-6.68-3.67-13.38-7.3-20.16-10.78-1.79-.91-3.58-1.85-5.52-2.85a3.62,3.62,0,0,1,2.38.31,198.05,198.05,0,0,1,27.21,12.93c.26.15.49.46,1.09.16-5.06-5.22-10.87-9.35-16.72-13.46A84.72,84.72,0,0,1,305.42,403c.17-.44-.14-.7-.32-1a57.27,57.27,0,0,0-5.78-7.47c-1.08-1.18-2.23-2.29-3.34-3.44-.15-.15-.44-.32-.23-.58s.43,0,.63.1.26.18.38.28a86.45,86.45,0,0,1,9.81,9.13c.87,1,1.76,1.93,2.88,3.16-.13-.57-.16-.76-.22-.94A36.76,36.76,0,0,0,306,395.3c-.16-.27-.55-.67-.09-.91s.5.3.68.54a56.19,56.19,0,0,1,4.11,6,3.25,3.25,0,0,0,1.05,1.4,25.61,25.61,0,0,0-2.82-9.51c2.33,2,3.34,4.87,4.53,7.61a5.51,5.51,0,0,0,.06-2.79c-.8-5.48-4.12-9.14-8.72-11.78-6-3.43-12.59-4.7-19.36-5.25-5.12-.42-10.26-.63-15.4-.92-5.33-.3-10.66-.88-16-.74-2.62.06-5.28,0-7.79,1-2.13.84-2.76,2.22-2,4.39a14.68,14.68,0,0,0,5.61,7c4.06,3,8.79,4.47,13.52,5.93,7.74,2.38,15.67,4.07,23.47,6.25C287.13,403.61,287.31,403.55,287.6,403.13Zm45.3-18.74c-.44,0-.87.05-1.31.1a5.41,5.41,0,0,0-.58.12c-4.1.89-6.74,3.64-8.81,7-1.26,2.05-2.51,4.24-2.2,6.7a22.34,22.34,0,0,0,3.19,9.19c.91,1.45,1.6,1.56,3.09.65a28,28,0,0,0,5.94-5.35c3.22-3.55,6.49-7,10.63-9.56a8.51,8.51,0,0,0,1.4-1.29,1.58,1.58,0,0,0,0-2.45A17.18,17.18,0,0,0,332.9,384.39Zm14,47.57a18.15,18.15,0,0,0,12.55-5.88,5.8,5.8,0,0,0,1.13-6.46,23.57,23.57,0,0,0-5.6-8.55c-2-1.95-3.71-2.06-6-.47a14,14,0,0,0-1.92,1.61,64.59,64.59,0,0,0-7.56,10,11.64,11.64,0,0,0-1,2,4.29,4.29,0,0,0,1.36,5.17C341.66,431.09,343.92,431.76,346.87,432Zm-18.13-16.38c0,1.46,1,2.26,2.74,1.83a14.75,14.75,0,0,0,4.5-2.17c5.9-3.85,10.57-9.08,15.54-14a2.67,2.67,0,0,0,.86-2.39,4.27,4.27,0,0,0-6.15-3.43,10.78,10.78,0,0,0-1.89,1A55.41,55.41,0,0,0,330,411.75,6.74,6.74,0,0,0,328.74,415.58ZM317,376.77c-2.25.13-4.43.4-5.94,2.33a9.27,9.27,0,0,0-1.71,6.88,1.26,1.26,0,0,0,.49.92,16,16,0,0,1,5.37,8.7c.25,1.07.79.78,1.36.37s.7-1.23.95-1.89c1.8-4.67,4.52-8.59,8.94-11.16,1.1-.65,1.19-1.29.33-2.28a5.14,5.14,0,0,0-1.06-1A18.17,18.17,0,0,0,317,376.77Zm47.41,41.8c2.25-3.33,2.11-9.44-.18-12.95a10.28,10.28,0,0,0-4-3.88c-1.26-.62-1.8-.42-2.42.78a10.46,10.46,0,0,0-.89,3.45,2.52,2.52,0,0,0,.84,2.44,19.58,19.58,0,0,1,3,3.53A33.41,33.41,0,0,1,364.38,418.57Z" transform="translate(-242.12 -340.99)"/></svg>