<svg viewBox="0 0 640 512" xmlns="http://www.w3.org/2000/svg"><path class="jp-icon3 jp-icon-selectable" fill="#616161" d="M351.996,401.327L287.996,351.862L287.996,473.642L310.016,506.662C314.766,513.782 325.236,513.782 329.986,506.662L351.996,473.642L351.996,401.327ZM319.996,0.012C263.586,0.012 214.752,32.447 191.127,79.686C186.682,88.574 183.129,97.987 180.586,107.806L390.166,269.789C434.215,245.162 463.996,198.065 463.996,144.012C463.996,64.482 399.526,0.012 319.996,0.012ZM319.996,76.012C286.103,76.012 257.927,100.928 252.821,133.408C252.278,136.864 251.996,140.406 251.996,144.012C251.996,149.741 247.967,154.542 242.592,155.73L228.017,144.466C228.003,144.315 227.996,144.164 227.996,144.012C227.996,134.067 229.583,124.484 232.516,115.506C244.545,78.686 279.22,52.012 319.996,52.012C326.616,52.012 331.996,57.392 331.996,64.012C331.996,70.632 326.616,76.012 319.996,76.012ZM594.526,508.633L6.176,53.903C-0.794,48.483 -2.054,38.433 3.366,31.453L23.006,6.183C28.426,-0.797 38.486,-2.057 45.466,3.373L633.816,458.103C640.786,463.523 642.046,473.573 636.626,480.553L616.986,505.823C611.566,512.803 601.506,514.053 594.526,508.633Z" style="fill-rule:nonzero;"/></svg>
