<svg viewBox="0 0 128 118" xmlns="http://www.w3.org/2000/svg">
    <g transform="matrix(1.12874,0,0,1.12874,-3.93398,-12.3119)">
        <g transform="matrix(0.741317,0,0,0.741317,-175.979,-224.918)">
            <path d="M304.82,414C305.09,416.71 305.32,419.12 305.57,421.53C305.82,423.94 306.15,426.53 306.36,429.03C306.418,429.658 306.285,430.289 305.98,430.84C303.9,434.14 301.76,437.4 299.59,440.65C299.019,441.459 298.401,442.233 297.74,442.97C297.26,443.52 296.74,443.55 296.07,442.88C296.52,442.39 296.98,441.88 297.41,441.43C300.266,438.298 302.575,434.708 304.24,430.81C304.627,429.824 304.804,428.768 304.76,427.71C304.527,422.355 303.282,417.092 301.09,412.2C300.219,410.195 298.486,408.687 296.38,408.1C289.94,406.24 283.38,404.69 276.96,402.93C270.54,401.17 263.96,399.51 257.53,397.36C253.048,395.841 248.969,393.324 245.6,390C244.07,388.515 242.994,386.624 242.5,384.55C241.77,381.55 242.87,379.27 245.82,378.32C249.413,377.215 253.19,376.841 256.93,377.22C258.88,377.39 260.84,377.39 262.79,377.5C268.79,377.85 274.79,378.2 280.79,378.6C281.887,378.765 282.975,378.213 283.49,377.23C286.274,372.754 290.939,369.77 296.17,369.12C299.189,368.827 302.235,368.951 305.22,369.49C305.615,369.572 306.025,369.551 306.41,369.43C306.13,369.16 305.87,368.86 305.57,368.61C299.15,363.09 294.86,356.31 293.36,347.9C293.163,346.761 293.106,345.603 293.19,344.45C293.37,341.62 294.93,340.36 297.62,341.32C300.324,342.26 302.901,343.533 305.29,345.11C317.554,353.572 327.844,364.588 335.45,377.4C336.17,378.59 336.62,379.94 337.29,381.16C337.56,381.698 337.994,382.136 338.53,382.41C341.015,383.301 343.331,384.606 345.38,386.27C347.122,387.504 348.142,389.526 348.1,391.66C350.114,391.486 352.097,392.268 353.45,393.77C354.809,395.306 355.628,397.245 355.78,399.29C356.058,399.194 356.326,399.07 356.58,398.92C358.078,397.846 360.074,397.748 361.67,398.67C367.05,401.26 370.57,408.31 369.45,414.61C369.034,416.592 368.386,418.519 367.52,420.35C367.066,421.14 366.428,421.809 365.66,422.3C365.161,422.545 364.844,423.055 364.844,423.61C364.844,423.982 364.986,424.339 365.24,424.61C366.31,426.4 367.32,428.23 368.36,430.04L367.96,430.31L364.62,426.24C362.91,429.35 363.05,432.54 363.31,436.06C361.85,434.18 361.54,432.21 361.12,430.06C356.803,433.767 351.301,435.814 345.61,435.83C346.531,439.342 348.308,442.571 350.78,445.23C349.99,445.94 349.44,445.64 349.01,444.95C347.29,442.13 345.54,439.32 343.9,436.46C343.521,435.786 342.931,435.255 342.22,434.95C340.441,434.176 338.762,433.189 337.22,432.01C334.932,430.129 333.942,427.076 334.69,424.21C334.74,423.94 334.79,423.67 334.83,423.39C334.83,423.33 334.77,423.26 334.74,423.21C333.47,423.48 332.18,423.69 330.94,424.05C330.67,424.13 330.4,424.7 330.37,425.05C329.865,431.321 330.416,437.632 332,443.72C332.094,443.93 332.142,444.157 332.142,444.387C332.142,445.099 331.678,445.734 331,445.95C327.75,447.74 324.55,449.62 321.36,451.51C320.869,451.823 320.474,452.266 320.22,452.79C319.53,454.18 318.96,455.64 318.31,457.05C318.122,457.431 317.861,457.771 317.54,458.05C317.314,458.197 317.029,458.223 316.78,458.12C316.601,457.925 316.517,457.662 316.55,457.4C316.593,457.086 316.681,456.78 316.81,456.49C317.49,454.49 318.24,452.49 318.81,450.49C318.931,449.699 319.583,449.089 320.38,449.02C323.337,448.5 326.163,447.406 328.7,445.8C329.136,445.684 329.442,445.285 329.442,444.834C329.442,444.589 329.352,444.353 329.19,444.17C326.171,438.128 325.169,431.274 326.33,424.62C326.45,423.87 326.43,423.47 325.55,423.26C318.892,421.556 312.543,418.812 306.74,415.13C306.24,414.81 305.66,414.5 304.82,414Z" style="fill-rule:nonzero;"/>
        </g>
        <g transform="matrix(0.486543,-0.559309,0.559309,0.486543,-300.135,47.4489)">
            <rect x="314.66" y="357.78" width="9.79" height="19.52" style="fill:rgb(171,171,171);"/>
        </g>
        <g transform="matrix(0.741317,0,0,0.741317,-175.979,-224.918)">
            <path d="M329.72,445.28C329.89,445.57 330.17,445.51 330.44,445.52C328.57,446.84 326.54,447.89 324.58,449.06C323.46,449.526 322.441,450.205 321.58,451.06C320.09,451.91 319.58,453.41 318.95,454.86C318.613,455.639 318.229,456.397 317.8,457.13C317.68,457.34 317.44,457.73 317.04,457.41C316.64,457.09 316.54,456.9 316.78,456.61C317.02,456.32 316.78,455.8 317.14,455.53C317.71,455.31 317.81,454.76 317.95,454.29C318.4,452.73 318.79,451.16 319.21,449.59C319.55,449.5 319.89,449.4 320.21,449.32C323.643,448.706 326.894,447.325 329.72,445.28Z" style="fill:rgb(2,2,2);fill-rule:nonzero;"/>
        </g>
        <g transform="matrix(0.741317,0,0,0.741317,-175.979,-224.918)">
            <path d="M321.59,451.08C322.451,450.225 323.47,449.546 324.59,449.08C326.59,447.91 328.59,446.86 330.45,445.54C331.62,445.38 331.8,444.67 331.54,443.65C330.14,438.032 329.53,432.246 329.73,426.46C329.674,425.681 329.867,424.903 330.28,424.24C329.722,430.956 330.303,437.718 332,444.24C332.13,444.74 332.21,445.14 331.66,445.45C328.29,447.29 324.94,449.19 321.59,451.08Z" style="fill:rgb(9,9,9);fill-rule:nonzero;"/>
        </g>
        <g transform="matrix(0.741317,0,0,0.741317,-175.979,-224.918)">
            <path d="M305.79,425.64C305.321,424.512 305.086,423.301 305.1,422.08C304.87,419.68 304.69,417.28 304.34,414.89C304.238,414.574 304.351,414.225 304.62,414.03C305.005,413.795 305.499,413.827 305.85,414.11C307.627,415.316 309.488,416.392 311.42,417.33C312.62,417.94 313.8,418.57 315.01,419.16C315.27,419.29 315.5,419.4 315.56,419.71C312.588,418.457 309.719,416.972 306.98,415.27C306.57,415.02 306.17,414.76 305.75,414.52C305.49,414.37 305.23,414.02 304.91,414.2C304.59,414.38 304.77,414.85 304.8,415.2C305.1,418.25 305.43,421.31 305.74,424.36C305.78,424.76 305.77,425.2 305.79,425.64Z" style="fill:rgb(9,9,9);fill-rule:nonzero;"/>
        </g>
        <g transform="matrix(0.741317,0,0,0.741317,-175.979,-224.918)">
            <path d="M329.72,445.28C326.908,447.326 323.671,448.714 320.25,449.34C319.9,449.42 319.56,449.52 319.25,449.61C319.238,449.522 319.221,449.436 319.2,449.35C319.939,448.989 320.74,448.772 321.56,448.71C323.88,448.094 326.111,447.183 328.2,446C329.28,445.41 329.68,444.8 328.87,443.73C328.777,443.555 328.716,443.366 328.69,443.17C329.339,443.677 329.719,444.456 329.72,445.28Z" style="fill:rgb(9,9,9);fill-rule:nonzero;"/>
        </g>
        <g transform="matrix(0.741317,0,0,0.741317,-175.979,-224.918)">
            <path d="M271.65,401.47C272.794,401.522 273.924,401.748 275,402.14C277.73,402.77 280.45,403.44 283.18,404.09C283.501,404.127 283.784,404.317 283.94,404.6C280.75,403.82 277.56,403.05 274.37,402.25C273.436,402.096 272.524,401.834 271.65,401.47Z" style="fill:rgb(15,15,15);fill-rule:nonzero;"/>
        </g>
        <g transform="matrix(0.741317,0,0,0.741317,-175.979,-224.918)">
            <path d="M300.23,438C300.23,438.003 300.23,438.007 300.23,438.01C300.23,438.312 300.478,438.56 300.78,438.56C300.787,438.56 300.793,438.56 300.8,438.56L298.4,441.68C297.98,441.58 297.92,441.1 297.57,440.91C298.203,440.313 298.76,439.642 299.23,438.91C299.496,438.54 299.837,438.23 300.23,438Z" style="fill:rgb(5,5,5);fill-rule:nonzero;"/>
        </g>
        <g transform="matrix(0.741317,0,0,0.741317,-175.979,-224.918)">
            <path d="M347.34,442.69C348.34,442.76 348.24,443.79 348.81,444.24C349.1,444.46 349.22,444.89 349.81,445.01C349.15,443.59 347.81,442.74 347.67,441.19C348.51,442.28 349.15,443.52 350.08,444.55C350.27,444.76 350.95,445.01 350.35,445.43C350.201,445.55 350.015,445.615 349.824,445.615C349.527,445.615 349.251,445.457 349.1,445.2L347.34,442.69Z" style="fill:rgb(10,10,10);fill-rule:nonzero;"/>
        </g>
        <g transform="matrix(0.741317,0,0,0.741317,-175.979,-224.918)">
            <path d="M303.56,419.66C304.071,420.493 304.36,421.443 304.4,422.42C304.754,424.46 304.967,426.521 305.04,428.59C305.04,428.9 305.11,429.23 304.81,429.47C304.594,426.178 304.177,422.901 303.56,419.66Z" style="fill:rgb(9,9,9);fill-rule:nonzero;"/>
        </g>
        <g transform="matrix(0.741317,0,0,0.741317,-175.979,-224.918)">
            <path d="M346.22,437.94C346.162,437.887 346.111,437.827 346.07,437.76C345.23,435.86 345.25,435.81 347.28,435.69C349.618,435.474 351.921,434.977 354.14,434.21C352.94,435.21 351.39,435.28 349.97,435.64C348.997,435.925 347.98,436.027 346.97,435.94C346.07,435.82 345.68,436.09 346.12,437.01C346.242,437.304 346.276,437.627 346.22,437.94Z" style="fill:rgb(253,253,253);fill-rule:nonzero;"/>
        </g>
        <g transform="matrix(0.741317,0,0,0.741317,-175.979,-224.918)">
            <path d="M297.57,441C297.92,441.19 297.98,441.67 298.4,441.77C298.177,442.222 297.868,442.626 297.49,442.96C297.34,443.137 297.119,443.24 296.887,443.24C296.683,443.24 296.487,443.161 296.34,443.02C295.86,442.65 296.34,442.28 296.51,442.02C296.823,441.641 297.179,441.299 297.57,441Z" style="fill:rgb(7,7,7);fill-rule:nonzero;"/>
        </g>
        <g transform="matrix(0.741317,0,0,0.741317,-175.979,-224.918)">
            <path d="M319.17,449.35C319.191,449.436 319.208,449.522 319.22,449.61C318.8,451.18 318.41,452.75 317.96,454.31C317.82,454.78 317.72,455.31 317.15,455.55C317.83,453.48 318.5,451.42 319.17,449.35Z" style="fill:rgb(19,19,19);fill-rule:nonzero;"/>
        </g>
        <g transform="matrix(0.741317,0,0,0.741317,-175.979,-224.918)">
            <path d="M362.78,435.7C363.39,435.51 363.03,435.04 363.03,434.7C362.876,433.172 362.944,431.629 363.23,430.12C363.39,432.21 363.04,434.31 363.56,436.49C363,436.39 362.78,436.14 362.78,435.7Z" style="fill:rgb(214,214,214);fill-rule:nonzero;"/>
        </g>
        <g transform="matrix(0.741317,0,0,0.741317,-175.979,-224.918)">
            <path d="M247.46,391.64C249.094,392.321 250.577,393.32 251.82,394.58C250.244,393.795 248.778,392.807 247.46,391.64Z" style="fill:rgb(16,16,16);fill-rule:nonzero;"/>
        </g>
        <g transform="matrix(0.741317,0,0,0.741317,-175.979,-224.918)">
            <path d="M287.6,403.13C287.31,403.55 287.13,403.61 286.85,403.53C279.05,401.35 271.12,399.66 263.38,397.28C258.65,395.82 253.92,394.33 249.86,391.35C247.306,389.659 245.344,387.211 244.25,384.35C243.49,382.18 244.12,380.8 246.25,379.96C248.76,378.96 251.42,379.02 254.04,378.96C259.39,378.82 264.72,379.4 270.04,379.7C275.18,379.99 280.32,380.2 285.44,380.62C292.21,381.17 298.82,382.44 304.8,385.87C309.4,388.51 312.72,392.17 313.52,397.65C313.74,398.57 313.719,399.531 313.46,400.44C312.27,397.7 311.26,394.88 308.93,392.83C310.481,395.786 311.439,399.017 311.75,402.34C311.279,401.978 310.915,401.494 310.7,400.94C309.461,398.853 308.088,396.849 306.59,394.94C306.41,394.7 306.25,394.22 305.91,394.4C305.57,394.58 305.84,395.04 306,395.31C307.312,397.505 308.391,399.831 309.22,402.25C309.28,402.43 309.31,402.62 309.44,403.19C308.32,401.96 307.44,401 306.56,400.03C303.531,396.737 300.251,393.685 296.75,390.9C296.63,390.8 296.5,390.71 296.37,390.62C296.24,390.53 295.95,390.27 295.74,390.52C295.53,390.77 295.82,390.95 295.97,391.1C297.08,392.25 298.23,393.36 299.31,394.54C301.442,396.863 303.379,399.358 305.1,402C305.28,402.29 305.59,402.55 305.42,403C299.344,397.45 292.492,392.814 285.08,389.24C290.93,393.35 296.74,397.48 301.8,402.7C301.2,403 300.97,402.7 300.71,402.54C291.982,397.542 282.885,393.216 273.5,389.6C272.765,389.229 271.925,389.12 271.12,389.29C273.06,390.29 274.85,391.23 276.64,392.14C283.42,395.62 290.12,399.25 296.8,402.92C297.01,403.04 297.2,403.18 297.41,403.29C297.62,403.4 297.99,403.59 297.82,403.9C297.65,404.21 297.35,403.9 297.12,403.81C288.62,400.95 280.023,398.387 271.33,396.12C269.44,395.63 267.54,395.12 265.65,394.65C264.994,394.483 264.306,394.483 263.65,394.65C271.58,397.53 279.65,400.11 287.6,403.13Z" style="fill:rgb(171,171,171);fill-rule:nonzero;"/>
        </g>
        <g transform="matrix(0.741317,0,0,0.741317,-175.979,-224.918)">
            <path d="M321.43,367.7L316.31,364.26C316.01,364.07 315.62,363.65 315.31,364.06C315,364.47 315.61,364.65 315.86,364.85C317.66,366.3 319.48,367.73 321.28,369.17C321.54,369.37 321.78,369.6 322.03,369.82C322.28,370.04 322.39,370.3 322.15,370.56C321.91,370.82 321.71,370.56 321.51,370.44L317.51,368.19C317.16,367.99 316.8,367.74 316.35,368.04C316.35,368.57 316.86,368.63 317.16,368.85C319.27,370.256 321.275,371.813 323.16,373.51C323.38,373.73 323.84,373.92 323.59,374.28C323.34,374.64 323.03,374.28 322.74,374.15C321.74,373.64 320.74,373.15 319.74,372.67C319.276,372.344 318.676,372.276 318.15,372.49C319.93,373.84 322.03,374.6 323.65,376.12C323.392,376.398 322.967,376.449 322.65,376.24C316.6,373.59 310.5,371 305.54,366.48C299.41,360.89 295.26,354.18 294.27,345.78C293.89,342.53 294.86,341.78 297.89,342.93C301.378,344.436 304.636,346.426 307.57,348.84C310.214,350.733 312.68,352.862 314.94,355.2C315.434,356.024 316.003,356.801 316.64,357.52C315.91,357.28 315.51,356.6 314.88,356.22C314.69,356.1 314.49,355.83 314.26,356.1C314.03,356.37 314.31,356.56 314.46,356.72C315.46,357.72 316.46,358.63 317.46,359.64C319.46,361.72 321.4,363.84 323.36,365.96C323.555,366.168 323.723,366.4 323.86,366.65C323.96,366.84 324.19,367.04 323.86,367.29C323.53,367.54 323.45,367.21 323.3,367.08L316.53,361.31C316.415,361.193 316.288,361.089 316.15,361C315.93,360.87 315.7,360.49 315.42,360.8C315.14,361.11 315.52,361.31 315.7,361.49C316.96,362.67 318.24,363.83 319.5,365.01C319.703,365.215 319.893,365.432 320.07,365.66C320.444,366.235 320.903,366.751 321.43,367.19C322,367.54 321.83,367.66 321.43,367.7Z" style="fill:rgb(149,149,149);fill-rule:nonzero;"/>
        </g>
        <g transform="matrix(0.741317,0,0,0.741317,-175.979,-224.918)">
            <path d="M332.9,384.39C337.202,384.615 341.267,386.451 344.28,389.53C344.648,389.83 344.862,390.28 344.862,390.755C344.862,391.23 344.648,391.68 344.28,391.98C343.863,392.461 343.393,392.894 342.88,393.27C338.74,395.8 335.47,399.27 332.25,402.83C330.536,404.888 328.536,406.69 326.31,408.18C324.82,409.09 324.13,408.98 323.22,407.53C321.495,404.738 320.405,401.6 320.03,398.34C319.72,395.88 320.97,393.69 322.23,391.64C324.3,388.25 326.94,385.5 331.04,384.64C331.231,384.589 331.425,384.549 331.62,384.52C332,384.44 332.46,384.42 332.9,384.39Z" style="fill:rgb(182,182,182);fill-rule:nonzero;"/>
        </g>
        <g transform="matrix(0.741317,0,0,0.741317,-175.979,-224.918)">
            <path d="M346.87,432C343.92,431.8 341.66,431.13 339.8,429.45C338.203,428.258 337.636,426.103 338.44,424.28C338.708,423.583 339.043,422.913 339.44,422.28C341.63,418.709 344.162,415.36 347,412.28C347.613,411.659 348.282,411.096 349,410.6C351.29,409.01 353,409.12 355,411.07C357.469,413.476 359.381,416.395 360.6,419.62C361.592,421.795 361.141,424.37 359.47,426.08C356.225,429.648 351.688,431.78 346.87,432Z" style="fill:rgb(129,129,129);fill-rule:nonzero;"/>
        </g>
        <g transform="matrix(0.741317,0,0,0.741317,-175.979,-224.918)">
            <path d="M284.1,376.57L285.75,374.91C286.075,374.913 286.385,374.774 286.6,374.53C289.036,372.444 292.022,371.104 295.2,370.67C296.11,370.55 297.12,370.82 297.97,370.23C300.105,370.164 302.241,370.356 304.33,370.8C307.19,371.39 310.14,371.8 312.52,373.75C313.71,374.75 313.72,375.1 312.52,375.98C309.869,377.889 308.209,380.89 308,384.15C307.9,385.15 307.56,385.21 306.82,384.88C305.82,384.46 305.03,383.81 304.02,383.46C301.72,382.65 299.5,381.64 297.15,380.98C293.483,379.986 289.729,379.343 285.94,379.06C285.12,379 284.04,379.11 283.54,378.72C282.52,377.94 284.26,377.42 284.1,376.57Z" style="fill:rgb(80,80,80);fill-rule:nonzero;"/>
        </g>
        <g transform="matrix(0.741317,0,0,0.741317,-175.979,-224.918)">
            <path d="M328.74,415.58C328.762,414.204 329.206,412.867 330.01,411.75C333.774,405.799 338.637,400.62 344.34,396.49C344.935,396.095 345.568,395.76 346.23,395.49C346.82,395.197 347.47,395.045 348.128,395.045C350.322,395.045 352.177,396.736 352.38,398.92C352.515,399.81 352.191,400.71 351.52,401.31C346.52,406.19 341.88,411.42 335.98,415.31C334.614,416.284 333.092,417.018 331.48,417.48C329.71,417.84 328.71,417 328.74,415.58Z" style="fill:rgb(171,171,171);fill-rule:nonzero;"/>
        </g>
        <g transform="matrix(0.741317,0,0,0.741317,-175.979,-224.918)">
            <path d="M317.09,376.28C320.357,376.497 323.514,377.547 326.26,379.33C326.668,379.615 327.037,379.951 327.36,380.33C328.27,381.38 328.18,382.05 327.01,382.73C322.38,385.43 319.52,389.54 317.64,394.44C317.38,395.14 317.31,395.95 316.64,396.44C315.97,396.93 315.47,397.17 315.21,396.05C314.386,392.47 312.403,389.26 309.57,386.92C309.271,386.67 309.087,386.309 309.06,385.92C308.68,383.371 309.328,380.772 310.86,378.7C312.44,376.7 314.73,376.42 317.09,376.28Z" style="fill:rgb(108,108,108);fill-rule:nonzero;"/>
        </g>
        <g transform="matrix(0.741317,0,0,0.741317,-175.979,-224.918)">
            <path d="M364.38,418.57C363.434,416.231 362.226,414.007 360.78,411.94C359.923,410.649 358.916,409.464 357.78,408.41C357.074,407.813 356.751,406.875 356.94,405.97C357.037,404.778 357.338,403.611 357.83,402.52C358.45,401.32 358.99,401.12 360.25,401.74C361.915,402.64 363.299,403.983 364.25,405.62C366.49,409.13 366.63,415.24 364.38,418.57Z" style="fill:rgb(129,129,129);fill-rule:nonzero;"/>
        </g>
        <g transform="matrix(0.741317,0,0,0.741317,-175.979,-224.918)">
            <path d="M318.12,361.94C315.6,358.01 312.23,354.76 310.34,350.33C317.02,355.6 322.21,362.33 327.34,369.21C323,368.27 320.42,365.3 318.12,361.94Z" style="fill:rgb(171,171,171);fill-rule:nonzero;"/>
        </g>
        <g transform="matrix(0.741317,0,0,0.741317,-175.979,-224.918)">
            <path d="M321,367.42C321.39,367.42 321.5,367.27 321.2,366.93C320.68,366.511 320.231,366.011 319.87,365.45C321.102,366.42 322.222,367.523 323.21,368.74C322.354,368.54 321.582,368.079 321,367.42Z" style="fill:rgb(171,171,171);fill-rule:nonzero;"/>
        </g>
        <g transform="matrix(0.741317,0,0,0.741317,-175.979,-224.918)">
            <path d="M305.79,425.64C305.747,426.54 305.824,427.441 306.02,428.32C306.45,430.19 305.31,431.62 304.48,433.06C303.39,434.98 302.04,436.76 300.8,438.6C300.793,438.6 300.787,438.6 300.78,438.6C300.478,438.6 300.23,438.352 300.23,438.05C300.23,438.047 300.23,438.043 300.23,438.04C301.63,435.55 303.34,433.22 304.23,430.47C304.382,430.12 304.566,429.786 304.78,429.47C305.08,429.23 305.02,428.9 305.01,428.59C304.937,426.521 304.724,424.46 304.37,422.42C304.33,421.443 304.041,420.493 303.53,419.66C302.813,417.095 301.938,414.577 300.91,412.12C299.999,410.146 298.282,408.655 296.2,408.03C292.34,406.79 288.38,405.87 284.46,404.81C284.273,404.75 284.089,404.68 283.91,404.6C283.754,404.317 283.471,404.127 283.15,404.09C280.42,403.44 277.7,402.77 274.97,402.14C273.894,401.748 272.764,401.522 271.62,401.47C266.15,400.14 260.62,398.89 255.48,396.56C254.21,395.99 253.02,395.25 251.79,394.56C250.547,393.3 249.064,392.301 247.43,391.62C244.905,389.972 243.086,387.439 242.33,384.52C241.56,381.52 242.63,379.22 245.57,378.26C249.185,377.129 252.993,376.748 256.76,377.14C258.76,377.32 260.76,377.31 262.76,377.42C268.707,377.773 274.66,378.133 280.62,378.5C281.709,378.699 282.81,378.167 283.33,377.19C285.548,373.492 289.111,370.789 293.27,369.65C293.529,369.561 293.783,369.458 294.03,369.34C297.519,368.675 301.101,368.675 304.59,369.34C305.15,369.526 305.745,369.581 306.33,369.5C306.138,369.051 305.779,368.692 305.33,368.5L301.44,364.73C296.705,359.49 293.749,352.883 293,345.86C292.933,345.106 292.967,344.346 293.1,343.6C293.47,341.45 295.03,340.6 297.44,341.18C300.211,341.967 302.814,343.255 305.12,344.98C317.384,353.496 327.682,364.541 335.32,377.37C336.028,378.612 336.633,379.91 337.13,381.25C337.332,381.813 337.801,382.24 338.38,382.39C340.884,383.22 343.208,384.516 345.23,386.21C346.74,387.48 347.93,388.93 347.93,391.05C347.93,391.45 348.09,391.58 348.48,391.64C352.82,392.35 354.69,394.17 355.48,398.47L355.64,399.21C355.804,399.192 355.963,399.144 356.11,399.07C357.98,397.56 359.93,397.78 361.91,398.81C366.97,401.44 370.27,408.46 369.32,414.54C369.049,416.562 368.394,418.514 367.39,420.29C366.945,421.107 366.298,421.795 365.51,422.29C364.97,422.567 364.628,423.125 364.628,423.732C364.628,424.125 364.771,424.505 365.03,424.8C365.589,425.602 366.1,426.437 366.56,427.3C366.65,427.47 367.06,427.93 366.56,428.21C366.06,428.49 366.03,428.04 365.77,427.83C365.459,427.537 365.193,427.2 364.98,426.83C364.41,426.11 364.07,426.4 363.82,426.97C363.469,428.009 363.248,429.087 363.16,430.18C362.874,431.689 362.806,433.232 362.96,434.76C362.96,435.09 363.32,435.56 362.71,435.76C361.874,434.222 361.325,432.545 361.09,430.81C361.03,430.29 360.82,430.02 360.34,430.45C358.427,431.994 356.319,433.278 354.07,434.27C351.851,435.037 349.548,435.534 347.21,435.75C345.21,435.87 345.21,435.92 346,437.82C346.041,437.887 346.092,437.947 346.15,438C346.07,439.34 347.06,440.2 347.62,441.25C347.72,442.8 349.1,443.65 349.76,445.07C349.15,444.95 349.03,444.52 348.76,444.3C348.19,443.85 348.24,442.82 347.29,442.75C345.759,440.551 344.45,438.206 343.38,435.75C343.14,435.21 342.68,435.14 342.23,435.01C340.507,434.497 338.907,433.636 337.53,432.48C334.909,430.504 333.724,427.132 334.53,423.95C334.59,423.69 334.8,423.39 334.59,423.16C334.38,422.93 333.98,423.16 333.74,423.3C332.63,423.9 331.3,423.63 330.21,424.24C329.797,424.903 329.604,425.681 329.66,426.46C329.46,432.246 330.07,438.032 331.47,443.65C331.73,444.65 331.55,445.38 330.38,445.54C330.11,445.54 329.83,445.59 329.66,445.3C329.673,444.474 329.303,443.688 328.66,443.17C326.989,439.671 326.034,435.873 325.85,432C325.67,429.415 325.821,426.817 326.3,424.27C326.45,423.47 326.07,423.34 325.44,423.19C322.025,422.408 318.711,421.241 315.56,419.71C315.5,419.4 315.27,419.29 315.01,419.16C313.8,418.57 312.62,417.94 311.42,417.33C309.488,416.392 307.627,415.316 305.85,414.11C305.499,413.827 305.005,413.795 304.62,414.03C304.351,414.225 304.238,414.574 304.34,414.89C304.69,417.28 304.87,419.68 305.1,422.08C305.086,423.301 305.321,424.512 305.79,425.64ZM298.33,370.77C297.59,370.85 296.84,370.89 296.1,371C292.931,371.318 289.977,372.754 287.77,375.05L286.34,376.49C285.927,376.733 285.583,377.077 285.34,377.49C285.18,377.79 284.75,378.02 284.99,378.43C285.23,378.84 285.57,378.59 285.87,378.63C287.99,378.91 290.12,379.13 292.23,379.46C297.122,380.15 301.836,381.769 306.12,384.23C306.93,384.71 307.12,384.54 307.21,383.6C307.47,380.55 308.57,377.89 311.21,376.11C312.28,375.4 312.32,375.11 311.53,374.11C311.199,373.708 310.777,373.389 310.3,373.18C306.567,371.411 302.457,370.584 298.33,370.77ZM316.53,357.58C316.983,358.296 317.703,358.804 318.53,358.99C317.497,357.622 316.29,356.395 314.94,355.34C312.753,353.079 310.367,351.021 307.81,349.19C304.971,346.858 301.82,344.933 298.45,343.47C295.52,342.34 294.58,343.08 294.95,346.22C295.95,354.35 299.95,360.84 305.85,366.22C310.65,370.59 316.54,373.09 322.39,375.65C322.701,375.874 323.136,375.826 323.39,375.54C321.83,374.07 319.79,373.33 318.08,372.03C318.584,371.818 319.164,371.882 319.61,372.2C320.56,372.68 321.53,373.14 322.47,373.63C322.75,373.78 323.07,374.08 323.3,373.76C323.53,373.44 323.09,373.22 322.88,373.02C321.044,371.375 319.093,369.865 317.04,368.5C316.76,368.3 316.27,368.24 316.27,367.73C316.7,367.43 317.04,367.68 317.39,367.87L321.24,370.04C321.44,370.16 321.64,370.4 321.86,370.16C322.08,369.92 321.98,369.65 321.75,369.44C321.52,369.23 321.27,369.01 321.02,368.81C319.28,367.42 317.52,366.05 315.78,364.64C315.54,364.45 314.98,364.28 315.25,363.88C315.52,363.48 315.89,363.88 316.17,364.07C317.83,365.17 319.497,366.277 321.17,367.39C321.752,368.049 322.524,368.51 323.38,368.71C322.392,367.493 321.272,366.39 320.04,365.42C319.871,365.201 319.691,364.991 319.5,364.79C318.28,363.65 317.04,362.53 315.82,361.39C315.64,361.22 315.27,361.03 315.55,360.73C315.83,360.43 316.04,360.79 316.26,360.91C316.394,360.999 316.519,361.103 316.63,361.22L323.17,366.8C323.31,366.92 323.38,367.28 323.71,367C324.04,366.72 323.77,366.56 323.71,366.38C323.576,366.136 323.412,365.911 323.22,365.71C321.32,363.71 319.44,361.61 317.51,359.6C316.58,358.6 315.56,357.72 314.6,356.78C314.45,356.63 314.18,356.44 314.4,356.18C314.62,355.92 314.81,356.18 315,356.3C315.44,356.7 315.83,357.35 316.53,357.58ZM287.6,403.13C279.6,400.13 271.6,397.53 263.6,394.6C264.256,394.433 264.944,394.433 265.6,394.6C267.49,395.11 269.39,395.6 271.28,396.07C279.947,398.33 288.543,400.893 297.07,403.76C297.3,403.84 297.56,404.23 297.77,403.85C297.98,403.47 297.62,403.38 297.36,403.24C297.1,403.1 296.96,402.99 296.75,402.87C290.07,399.2 283.37,395.57 276.59,392.09C274.8,391.18 273.01,390.24 271.07,389.24C271.875,389.07 272.715,389.179 273.45,389.55C282.835,393.163 291.931,397.485 300.66,402.48C300.92,402.63 301.15,402.94 301.75,402.64C296.69,397.42 290.88,393.29 285.03,389.18C292.464,392.769 299.333,397.425 305.42,403C305.59,402.56 305.28,402.3 305.1,402C303.382,399.355 301.449,396.857 299.32,394.53C298.24,393.35 297.09,392.24 295.98,391.09C295.83,390.94 295.54,390.77 295.75,390.51C295.96,390.25 296.18,390.51 296.38,390.61C296.58,390.71 296.64,390.79 296.76,390.89C300.261,393.675 303.541,396.727 306.57,400.02C307.44,401.02 308.33,401.95 309.45,403.18C309.32,402.61 309.29,402.42 309.23,402.24C308.398,399.821 307.315,397.495 306,395.3C305.84,395.03 305.45,394.63 305.91,394.39C306.37,394.15 306.41,394.69 306.59,394.93C308.088,396.839 309.461,398.843 310.7,400.93C310.915,401.484 311.279,401.968 311.75,402.33C311.439,399.007 310.481,395.776 308.93,392.82C311.26,394.82 312.27,397.69 313.46,400.43C313.719,399.521 313.74,398.56 313.52,397.64C312.72,392.16 309.4,388.5 304.8,385.86C298.8,382.43 292.21,381.16 285.44,380.61C280.32,380.19 275.18,379.98 270.04,379.69C264.71,379.39 259.38,378.81 254.04,378.95C251.42,379.01 248.76,378.95 246.25,379.95C244.12,380.79 243.49,382.17 244.25,384.34C245.344,387.201 247.306,389.649 249.86,391.34C253.92,394.34 258.65,395.81 263.38,397.27C271.12,399.65 279.05,401.34 286.85,403.52C287.13,403.61 287.31,403.55 287.6,403.13ZM332.9,384.39C332.46,384.39 332.03,384.44 331.59,384.49C331.395,384.519 331.201,384.559 331.01,384.61C326.91,385.5 324.27,388.25 322.2,391.61C320.94,393.66 319.69,395.85 320,398.31C320.375,401.57 321.465,404.708 323.19,407.5C324.1,408.95 324.79,409.06 326.28,408.15C328.506,406.66 330.506,404.858 332.22,402.8C335.44,399.25 338.71,395.8 342.85,393.24C343.363,392.864 343.833,392.431 344.25,391.95C344.618,391.65 344.832,391.2 344.832,390.725C344.832,390.25 344.618,389.8 344.25,389.5C341.239,386.439 337.188,384.615 332.9,384.39ZM346.9,431.96C351.695,431.737 356.21,429.622 359.45,426.08C361.121,424.37 361.572,421.795 360.58,419.62C359.361,416.395 357.449,413.476 354.98,411.07C352.98,409.12 351.27,409.01 348.98,410.6C348.293,411.078 347.651,411.617 347.06,412.21C344.222,415.29 341.69,418.639 339.5,422.21C339.103,422.843 338.768,423.513 338.5,424.21C337.696,426.033 338.263,428.188 339.86,429.38C341.66,431.09 343.92,431.76 346.87,432L346.9,431.96ZM328.77,415.58C328.77,417.04 329.77,417.84 331.51,417.41C333.122,416.948 334.644,416.214 336.01,415.24C341.91,411.39 346.58,406.16 351.55,401.24C352.221,400.64 352.545,399.74 352.41,398.85C352.207,396.666 350.352,394.975 348.158,394.975C347.5,394.975 346.85,395.127 346.26,395.42C345.598,395.69 344.965,396.025 344.37,396.42C338.646,400.567 333.768,405.77 330,411.75C329.199,412.868 328.759,414.205 328.74,415.58L328.77,415.58ZM317,376.77C314.75,376.9 312.57,377.17 311.06,379.1C309.602,381.075 308.986,383.552 309.35,385.98C309.373,386.343 309.552,386.679 309.84,386.9C312.533,389.134 314.42,392.191 315.21,395.6C315.46,396.67 316,396.38 316.57,395.97C317.14,395.56 317.27,394.74 317.52,394.08C319.32,389.41 322.04,385.49 326.46,382.92C327.56,382.27 327.65,381.63 326.79,380.64C326.486,380.258 326.129,379.921 325.73,379.64C323.114,377.951 320.108,376.963 317,376.77ZM364.41,418.57C366.66,415.24 366.52,409.13 364.23,405.62C363.279,403.983 361.895,402.64 360.23,401.74C358.97,401.12 358.43,401.32 357.81,402.52C357.318,403.611 357.017,404.778 356.92,405.97C356.731,406.875 357.054,407.813 357.76,408.41C358.896,409.464 359.903,410.649 360.76,411.94C362.213,414.006 363.428,416.23 364.38,418.57L364.41,418.57Z" style="fill-rule:nonzero;"/>
        </g>
    </g>
    <g id="info-circle" transform="matrix(3.25,0,0,3.25,49.56,-6.5)">
        <path d="M16,21.5L16,19C16,18.719 15.781,18.5 15.5,18.5L14,18.5L14,10.5C14,10.219 13.781,10 13.5,10L8.5,10C8.219,10 8,10.219 8,10.5L8,13C8,13.281 8.219,13.5 8.5,13.5L10,13.5L10,18.5L8.5,18.5C8.219,18.5 8,18.719 8,19L8,21.5C8,21.781 8.219,22 8.5,22L15.5,22C15.781,22 16,21.781 16,21.5ZM14,7.5L14,5C14,4.719 13.781,4.5 13.5,4.5L10.5,4.5C10.219,4.5 10,4.719 10,5L10,7.5C10,7.781 10.219,8 10.5,8L13.5,8C13.781,8 14,7.781 14,7.5ZM24,14C24,20.625 18.625,26 12,26C5.375,26 0,20.625 0,14C0,7.375 5.375,2 12,2C18.625,2 24,7.375 24,14Z" style="fill:rgb(26,118,210);fill-rule:nonzero;"/>
    </g>
</svg>
