<svg viewBox="0 0 17 17" xmlns="http://www.w3.org/2000/svg">
    <g transform="matrix(1,0,0,1,0.5,-91.5)">
        <g transform="matrix(1,0,0,1,2.1,-2.084)">
            <rect x="1.6" y="93.584" width="12.8" height="12.792" style="fill:rgb(64,64,64);fill-rule:nonzero;"/>
        </g>
        <g id="share-square-o" transform="matrix(0.430913,0,0,0.430913,-2.22365,99.8)">
            <path d="M25.703,7.703L19.703,13.703C19.516,13.906 19.265,14 19,14C18.875,14 18.734,13.969 18.609,13.922C18.25,13.766 18,13.406 18,13L18,10L15.5,10C12.063,10 9.875,10.656 8.656,12.047C7.39,13.5 7.015,15.844 7.5,19.438C7.531,19.657 7.391,19.876 7.187,19.969C7.124,19.985 7.062,20 7,20C6.844,20 6.687,19.922 6.594,19.797C6.485,19.641 4,16.125 4,13C4,8.812 5.313,4 15.5,4L18,4L18,1C18,0.594 18.25,0.234 18.609,0.078C18.734,0.031 18.875,-0 19,-0C19.266,-0 19.516,0.109 19.703,0.297L25.703,6.297C26.094,6.688 26.094,7.313 25.703,7.703Z" style="fill:rgb(190,190,190);fill-rule:nonzero;"/>
        </g>
    </g>
    <g transform="matrix(1,0,0,1,2.6,-93.584)">
        <path d="M8.4,102.184L11.6,102.184L11.6,103.208L8.4,103.208L8.4,102.184ZM4.088,98.16L5.92,99.992L4.056,101.856L4.896,102.696L7.6,99.992L4.928,97.32L4.088,98.16Z" style="fill:white;fill-rule:nonzero;"/>
    </g>
</svg>
