<svg viewBox="0 0 512 512" xmlns="http://www.w3.org/2000/svg"><path class="jp-icon3 jp-icon-selectable" fill="#616161" d="M505,442.7L405.3,343C400.8,338.5 394.7,336 388.3,336L372,336C399.6,300.7 416,256.3 416,208C416,93.1 322.9,0 208,0C93.1,0 0,93.1 0,208C0,322.9 93.1,416 208,416C256.3,416 300.7,399.6 336,372L336,388.3C336,394.7 338.5,400.8 343,405.3L442.7,505C452.1,514.4 467.3,514.4 476.6,505L504.9,476.7C514.3,467.3 514.3,452.1 505,442.7ZM208,336C137.3,336 80,278.8 80,208C80,137.3 137.2,80 208,80C278.7,80 336,137.2 336,208C336,278.7 278.8,336 208,336ZM126.188,180.242L126.188,134.953C126.188,130.096 130.096,126.188 134.953,126.188L180.242,126.188C182.653,126.188 184.625,128.16 184.625,130.57L184.625,145.18C184.625,147.59 182.653,149.563 180.242,149.563L149.563,149.563L149.563,180.242C149.563,182.653 147.59,184.625 145.18,184.625L130.57,184.625C128.16,184.625 126.188,182.653 126.188,180.242ZM231.375,130.57L231.375,145.18C231.375,147.59 233.347,149.563 235.758,149.563L266.437,149.563L266.437,180.242C266.437,182.653 268.41,184.625 270.82,184.625L285.43,184.625C287.84,184.625 289.812,182.653 289.812,180.242L289.812,134.953C289.812,130.096 285.904,126.188 281.047,126.188L235.758,126.188C233.347,126.188 231.375,128.16 231.375,130.57ZM285.43,231.375L270.82,231.375C268.41,231.375 266.437,233.347 266.437,235.758L266.437,266.437L235.758,266.437C233.347,266.437 231.375,268.41 231.375,270.82L231.375,285.43C231.375,287.84 233.347,289.812 235.758,289.812L281.047,289.812C285.904,289.812 289.812,285.904 289.812,281.047L289.812,235.758C289.812,233.347 287.84,231.375 285.43,231.375ZM184.625,285.43L184.625,270.82C184.625,268.41 182.653,266.437 180.242,266.437L149.563,266.437L149.563,235.758C149.563,233.347 147.59,231.375 145.18,231.375L130.57,231.375C128.16,231.375 126.188,233.347 126.188,235.758L126.188,281.047C126.188,285.904 130.096,289.812 134.953,289.812L180.242,289.812C182.653,289.812 184.625,287.84 184.625,285.43Z" style="fill-rule:nonzero;"/></svg>
